<?xml version="1.0" encoding="utf-8"?>
<!DOCTYPE svg PUBLIC "-//W3C//DTD SVG 1.1//EN" "http://www.w3.org/Graphics/SVG/1.1/DTD/svg11.dtd">
<svg version="1.1" id="Layer_1" xmlns="http://www.w3.org/2000/svg" xmlns:xlink="http://www.w3.org/1999/xlink" x="0px" y="0px"
	 viewBox="0 0 396 398.2" enable-background="new 0 0 396 398.2" xml:space="preserve">
<g>
	<g>
		<path fill="#66CDBA" d="M203.5,162v95.8h14.1V162h25.4v-12.7h-25.4v-30.3c0-19.3,6.3-28.9,19-28.9c5.3,0,9.5,0.8,12.7,2.3
			l2.8-12.2c-4.2-1.9-9.6-2.8-16.2-2.8c-3.4,0-7.1,0.6-10.9,1.8c-3.8,1.2-7.3,3.2-10.4,6c-3.1,2.8-5.8,6.5-7.9,11.1
			c-2.1,4.6-3.2,10.4-3.2,17.5v35.4 M187.3,149.4h-14.1V278c0,3.1-0.2,6.1-0.6,8.9c-0.4,2.8-1.2,5.3-2.3,7.4
			c-1.2,2.1-2.9,3.8-5.2,5.2c-2.3,1.3-5.3,2-9,2c-2.7,0-5.6-0.6-8.9-1.9l-2.1,12.4c3.8,1.4,7.5,2.1,11.3,2.1
			c6.3,0,11.4-0.9,15.4-2.7c4-1.8,7.2-4.3,9.5-7.6c2.3-3.3,4-7.2,4.8-11.7c0.9-4.5,1.3-9.6,1.3-15.3V149.4z"/>
	</g>
	<g>
		<path fill="#85868E" d="M198.6,397.1C89.1,397.1,0,308.1,0,198.6S89.1,0,198.6,0s198.6,89.1,198.6,198.6S308.1,397.1,198.6,397.1z
			 M198.6,2.3C90.3,2.3,2.3,90.3,2.3,198.6c0,108.2,88.1,196.3,196.3,196.3c108.2,0,196.3-88.1,196.3-196.3
			C394.9,90.3,306.8,2.3,198.6,2.3z"/>
	</g>
</g>
</svg>
