<?xml version="1.0" encoding="utf-8"?>
<!-- Generator: Adobe Illustrator 18.0.0, SVG Export Plug-In . SVG Version: 6.00 Build 0)  -->
<!DOCTYPE svg PUBLIC "-//W3C//DTD SVG 1.1//EN" "http://www.w3.org/Graphics/SVG/1.1/DTD/svg11.dtd">
<svg version="1.1" id="Layer_1" xmlns="http://www.w3.org/2000/svg" xmlns:xlink="http://www.w3.org/1999/xlink" x="0px" y="0px"
	 viewBox="0 0 30 30" enable-background="new 0 0 30 30" xml:space="preserve">
<path fill="#010101" d="M14.6,12.5c-1.3-2.3-2.7-4.2-2.8-4.4c-2.1,1-3.7,3-4.2,5.3C7.7,13.4,10.9,13.5,14.6,12.5z M15.5,15.1
	c0.1,0,0.2-0.1,0.3-0.1c-0.2-0.4-0.4-0.9-0.6-1.3c-3.9,1.2-7.7,1.1-7.8,1.1c0,0.1,0,0.2,0,0.2c0,2,0.7,3.7,2,5.1c0,0,0,0,0,0
	S11.4,16.4,15.5,15.1z M10.3,21L10.3,21c-0.1,0-0.1-0.1-0.2-0.1C10.2,20.9,10.3,21,10.3,21z M13.2,7.6C13.2,7.6,13.2,7.6,13.2,7.6
	C13.2,7.6,13.2,7.6,13.2,7.6L13.2,7.6z M20,9.3c-1.3-1.2-3.1-1.9-5-1.9c-0.6,0-1.2,0.1-1.8,0.2c0.1,0.2,1.5,2.1,2.8,4.4
	C18.9,11,20,9.3,20,9.3z M15,23.9c-4.9,0-8.9-4-8.9-8.9c0-4.9,4-8.9,8.9-8.9c4.9,0,8.9,4,8.9,8.9C23.9,19.9,19.9,23.9,15,23.9z
	 M16.3,16.2c-4.5,1.6-5.9,4.7-6,4.8c1.3,1,2.9,1.6,4.7,1.6c1.1,0,2.1-0.2,3-0.6C17.9,21.3,17.4,19,16.3,16.2
	C16.3,16.2,16.3,16.2,16.3,16.2z M16.6,13.2c0.2,0.4,0.3,0.7,0.5,1.1c0.1,0.1,0.1,0.3,0.2,0.4c2.6-0.3,5.2,0.2,5.3,0.2
	c0-1.8-0.7-3.5-1.7-4.8C20.9,10.2,19.6,11.9,16.6,13.2z M17.8,15.9c1,2.7,1.4,5,1.5,5.4c1.7-1.2,2.9-3,3.3-5.1
	C22.4,16.2,20.2,15.5,17.8,15.9z"/>
</svg>
