<?xml version="1.0" encoding="utf-8"?>
<!-- Generator: Adobe Illustrator 18.0.0, SVG Export Plug-In . SVG Version: 6.00 Build 0)  -->
<!DOCTYPE svg PUBLIC "-//W3C//DTD SVG 1.1//EN" "http://www.w3.org/Graphics/SVG/1.1/DTD/svg11.dtd">
<svg version="1.1" id="Layer_1" xmlns="http://www.w3.org/2000/svg" xmlns:xlink="http://www.w3.org/1999/xlink" x="0px" y="0px"
	 viewBox="0 0 30 30" enable-background="new 0 0 30 30" xml:space="preserve">
<path fill="#010101" d="M21.6,8.6C21.3,8.7,6.5,13.9,6.2,14c-0.2,0.1-0.3,0.3,0,0.4c0.3,0.1,3.3,1.3,3.3,1.3h0l2,0.8
	c0,0,9.4-6.9,9.6-7c0.1-0.1,0.3,0.1,0.2,0.2c-0.1,0.1-6.9,7.4-6.9,7.4c0,0,0,0,0,0L14,17.5l0.5,0.3v0c0,0,4.1,2.2,4.3,2.3
	c0.3,0.1,0.6,0,0.7-0.3C19.6,19.5,22,9.2,22,9C22.1,8.7,21.9,8.5,21.6,8.6z M11.4,21.2c0,0.2,0.1,0.3,0.3,0.1
	c0.2-0.2,2.5-2.2,2.5-2.2l-2.8-1.4V21.2z"/>
</svg>
