<?xml version="1.0" encoding="utf-8"?>
<!-- Generator: Adobe Illustrator 18.0.0, SVG Export Plug-In . SVG Version: 6.00 Build 0)  -->
<!DOCTYPE svg PUBLIC "-//W3C//DTD SVG 1.1//EN" "http://www.w3.org/Graphics/SVG/1.1/DTD/svg11.dtd">
<svg version="1.1" id="Layer_1" xmlns="http://www.w3.org/2000/svg" xmlns:xlink="http://www.w3.org/1999/xlink" x="0px" y="0px"
	 viewBox="0 0 30 30" enable-background="new 0 0 30 30" xml:space="preserve">
<path fill="#010101" d="M18.1,16c-0.7,0-1.3,0.8-1.3,1.8c0,1,0.6,1.8,1.3,1.8c0.7,0,1.3-0.8,1.3-1.8C19.4,16.8,18.8,16,18.1,16z
	 M22.6,11.4C22.7,11,22.7,9,22,7.1c0,0-1.8,0.2-4.5,2C16.9,8.9,16,8.9,15,8.9s-1.9,0.1-2.5,0.2C9.8,7.3,8,7.1,8,7.1
	c-0.8,2-0.8,4-0.6,4.4c-0.9,1-1.5,2.2-1.5,3.8c0,7.1,5.9,7.2,7.3,7.2c0.3,0,1,0,1.7,0c0.7,0,1.4,0,1.7,0c1.5,0,7.3-0.1,7.3-7.2
	C24,13.6,23.5,12.4,22.6,11.4z M15,21.5L15,21.5c-3.8,0-6.6-0.4-6.6-4c0-0.9,0.3-1.7,1-2.3c1.2-1.1,3.2-0.5,5.6-0.5c0,0,0,0,0,0
	c0,0,0,0,0,0c2.3,0,4.4-0.6,5.6,0.5c0.7,0.7,1,1.5,1,2.3C21.6,21.1,18.7,21.5,15,21.5z M11.9,16c-0.7,0-1.3,0.8-1.3,1.8
	c0,1,0.6,1.8,1.3,1.8c0.7,0,1.3-0.8,1.3-1.8C13.2,16.8,12.6,16,11.9,16z"/>
</svg>
