<?xml version="1.0" encoding="utf-8"?>
<!-- Generator: Adobe Illustrator 18.0.0, SVG Export Plug-In . SVG Version: 6.00 Build 0)  -->
<!DOCTYPE svg PUBLIC "-//W3C//DTD SVG 1.1//EN" "http://www.w3.org/Graphics/SVG/1.1/DTD/svg11.dtd">
<svg version="1.1" id="Layer_1" xmlns="http://www.w3.org/2000/svg" xmlns:xlink="http://www.w3.org/1999/xlink" x="0px" y="0px"
	 viewBox="0 0 30 30" enable-background="new 0 0 30 30" xml:space="preserve">
<g>
	<path fill="#010101" d="M11.2,8.8c0,0.9-0.6,1.6-1.7,1.6c-1,0-1.6-0.7-1.6-1.6c0-0.9,0.7-1.6,1.7-1.6C10.6,7.3,11.2,8,11.2,8.8z
		 M8,21.7v-10h3.1v10H8z"/>
	<path fill="#010101" d="M13,14.8c0-1.3,0-2.3-0.1-3.2h2.7l0.1,1.4h0.1c0.4-0.7,1.4-1.6,3.1-1.6c2.1,0,3.6,1.4,3.6,4.3v5.9h-3.1
		v-5.6c0-1.3-0.5-2.2-1.6-2.2c-0.9,0-1.4,0.6-1.6,1.2c-0.1,0.2-0.1,0.5-0.1,0.8v5.8H13V14.8z"/>
</g>
</svg>
