<?xml version="1.0" encoding="utf-8"?>
<!-- Generator: Adobe Illustrator 18.0.0, SVG Export Plug-In . SVG Version: 6.00 Build 0)  -->
<!DOCTYPE svg PUBLIC "-//W3C//DTD SVG 1.1//EN" "http://www.w3.org/Graphics/SVG/1.1/DTD/svg11.dtd">
<svg version="1.1" id="Layer_1" xmlns="http://www.w3.org/2000/svg" xmlns:xlink="http://www.w3.org/1999/xlink" x="0px" y="0px"
	 viewBox="0 0 30 30" enable-background="new 0 0 30 30" xml:space="preserve">
<path fill="#010101" d="M23.3,9.8c-0.6,0.3-1.3,0.5-2,0.5c0.7-0.4,1.2-1.1,1.5-1.9c-0.7,0.4-1.4,0.7-2.2,0.8
	c-0.6-0.7-1.5-1.1-2.5-1.1c-1.9,0-3.4,1.5-3.4,3.4c0,0.3,0,0.5,0.1,0.8c-2.8-0.1-5.3-1.5-7-3.6C7.6,9.4,7.4,10,7.4,10.6
	c0,1.2,0.6,2.2,1.5,2.8c-0.6,0-1.1-0.2-1.5-0.4c0,0,0,0,0,0c0,1.7,1.2,3,2.7,3.3c-0.3,0.1-0.6,0.1-0.9,0.1c-0.2,0-0.4,0-0.6-0.1
	c0.4,1.4,1.7,2.3,3.2,2.4c-1.2,0.9-2.6,1.5-4.2,1.5c-0.3,0-0.5,0-0.8,0c1.5,1,3.3,1.5,5.2,1.5c6.3,0,9.7-5.2,9.7-9.7
	c0-0.1,0-0.3,0-0.4C22.3,11.1,22.9,10.5,23.3,9.8z"/>
</svg>
